<?xml version="1.0" standalone="no"?>
<!DOCTYPE svg PUBLIC "-//W3C//DTD SVG 20010904//EN"
 "http://www.w3.org/TR/2001/REC-SVG-20010904/DTD/svg10.dtd">
<svg version="1.0" xmlns="http://www.w3.org/2000/svg"
 width="50.000000pt" height="50.000000pt" viewBox="0 0 50.000000 50.000000"
 preserveAspectRatio="xMidYMid meet">

<g transform="translate(0.000000,50.000000) scale(0.100000,-0.100000)"
fill="#000000" stroke="none">
<path d="M126 484 c-57 -20 -101 -50 -115 -78 -12 -21 -10 -31 13 -81 33 -73
76 -126 119 -150 31 -16 35 -24 39 -67 3 -28 14 -61 25 -76 47 -62 167 -18
251 90 35 45 43 62 38 82 -9 37 -71 92 -131 117 l-53 22 -12 64 c-9 44 -19 68
-33 78 -26 19 -90 18 -141 -1z m124 -14 c11 -6 23 -30 29 -60 14 -66 14 -70
-4 -70 -9 0 -27 -12 -40 -26 -13 -14 -39 -34 -57 -43 -18 -9 -35 -25 -37 -36
-3 -19 -2 -19 21 3 32 29 50 29 39 0 -5 -13 -12 -31 -15 -41 -5 -16 -8 -16
-35 -3 -62 33 -142 166 -122 204 30 55 168 100 221 72z m125 -176 c42 -20 105
-78 105 -97 0 -21 -74 -110 -116 -140 -25 -18 -60 -31 -87 -34 l-44 -5 -18 46
c-22 58 -16 126 20 203 25 55 25 56 64 50 21 -2 55 -13 76 -23z"/>
<path d="M190 371 c0 -5 7 -14 15 -21 12 -10 18 -10 30 0 13 11 13 15 3 21
-17 11 -48 11 -48 0z"/>
<path d="M111 336 l-24 -26 22 0 c22 0 36 20 29 40 -2 6 -14 0 -27 -14z"/>
<path d="M274 225 c24 -18 49 -20 44 -2 -3 6 -18 13 -34 15 -28 2 -28 2 -10
-13z"/>
<path d="M237 183 c-11 -10 -8 -60 5 -88 16 -35 53 -43 97 -19 47 26 48 39 3
52 -21 6 -49 23 -62 37 -25 26 -32 29 -43 18z m43 -48 c7 -8 18 -15 24 -15 6
0 18 -5 26 -10 13 -9 13 -11 0 -20 -24 -16 -59 -11 -70 9 -21 41 -6 68 20 36z"/>
<path d="M379 169 c26 -22 35 -20 25 5 -3 9 -16 16 -28 16 -21 -1 -21 -1 3
-21z"/>
</g>
</svg>
